# xmcd CD database file
#
# Track frame offsets:
#	150
#	16014
#	32448
#	52092
#	65857
#	86633
#	104424
#	119298
#	131781
#	146067
#	163550
#	176651
#	191279
#	207070
#	222235
#
# Disc length: 3172 seconds
#
# Revision: 0
# Processed by: cddbd v1.5PL3 Copyright (c) Steve Scherf et al.
# Submitted via: CDex 1.50
#
DISCID=d70c620f
DTITLE=O Bando da Maria - Tiro de Bodoque
DYEAR=2004
DGENRE=Forro
TTITLE0=Tiro de Bodoque
TTITLE1=Tenha dó de mim
TTITLE2=Carinha de Leão
TTITLE3=Rosalina
TTITLE4=Terrinha
TTITLE5=Coração Nordestino
TTITLE6=História de uma Gata
TTITLE7=Agora eu sei
TTITLE8=Êxodo
TTITLE9=Espinho na Roseira
TTITLE10=Quem é que foi
TTITLE11=Triângulo Amoroso
TTITLE12=Duelo de Fole
TTITLE13=A Morena e Cachaça
TTITLE14=Tiro de Boloque replay
EXTD=YEAR: 2004
EXTT0=
EXTT1=
EXTT2=
EXTT3=
EXTT4=
EXTT5=
EXTT6=
EXTT7=
EXTT8=
EXTT9=
EXTT10=
EXTT11=
EXTT12=
EXTT13=
EXTT14=
PLAYORDER=
